<?xml version="1.0" encoding="UTF-8"?>
<!DOCTYPE svg PUBLIC "-//W3C//DTD SVG 1.1//EN" "http://www.w3.org/Graphics/SVG/1.1/DTD/svg11.dtd">
<!-- Creator: CorelDRAW 2021 (64 Bit) -->
<svg xmlns="http://www.w3.org/2000/svg" xml:space="preserve" width="894px" height="559px" version="1.1" style="shape-rendering:geometricPrecision; text-rendering:geometricPrecision; image-rendering:optimizeQuality; fill-rule:evenodd; clip-rule:evenodd"
viewBox="0 0 197.62 123.59"
 xmlns:xlink="http://www.w3.org/1999/xlink"
 xmlns:xodm="http://www.corel.com/coreldraw/odm/2003">
 <defs>
  <style type="text/css">
   <![CDATA[
    .fil3 {fill:black}
    .fil4 {fill:blue}
    .fil2 {fill:#01D101}
    .fil1 {fill:#FDDB00}
    .fil0 {fill:red}
    .fil6 {fill:#01D101;fill-rule:nonzero}
    .fil5 {fill:#193DFF;fill-rule:nonzero}
   ]]>
  </style>
 </defs>
 <g id="Camada_x0020_1">
  <metadata id="CorelCorpID_0Corel-Layer"/>
  <polygon class="fil0" points="109.12,34.24 128.74,34.24 133.36,0 113.74,0 "/>
  <path class="fil1" d="M63.25 0.03l28.74 0c15.8,0 28.73,12.93 28.73,28.73l0 0c0,15.8 -12.93,28.73 -28.73,28.73l-28.74 0 0 -57.46z"/>
  <path class="fil2" d="M112.56 8.75c5.04,5.18 8.16,12.25 8.16,20.01 0,1.87 -0.18,3.71 -0.53,5.48l-11.07 0 3.44 -25.49z"/>
  <path class="fil3" d="M119.83 35.86c-1.79,6.95 -6.12,12.9 -11.93,16.79 -1.18,-1.76 -1.87,-3.87 -1.87,-6.14 0,-6.08 4.93,-11 11,-11 0.97,0 1.9,0.12 2.8,0.35z"/>
  <path class="fil4" d="M104.89 18.25l0 7.22c0,8.71 -7.13,15.83 -15.84,15.83l0 0c-8.71,0 -15.83,-7.12 -15.83,-15.83l0 -7.22 31.67 0z"/>
  <path class="fil4" d="M117.03 35.51c6.08,0 11,4.92 11,11 0,6.07 -4.92,11 -11,11 -6.07,0 -11,-4.93 -11,-11 0,-6.08 4.93,-11 11,-11z"/>
  <path class="fil5" d="M9.48 67.93l-9.48 0 0 24.49 9.26 0c7.13,0 11.85,-4.89 11.85,-12.26 0,-7.37 -4.63,-12.23 -11.63,-12.23zm0.18 18.79l-3.24 0 0 -13.06 2.93 0c3.09,0 5.22,2.62 5.22,6.57 0,3.91 -1.98,6.49 -4.91,6.49zm13.86 -18.79l0 24.49 17.99 0 0 -5.59 -11.57 0 0 -3.88 10.21 0 0 -5.59 -10.21 0 0 -3.84 11.26 0 0 -5.59 -17.68 0zm36.63 8.11l2.38 -5.59c-2.34,-1.71 -5.74,-2.83 -9.04,-2.83 -5.4,0 -8.95,3 -8.95,7.72 0,8.62 11.29,6.28 11.29,9.99 0,1.11 -0.86,1.64 -2.22,1.64 -2.22,0 -5.83,-1.61 -8.05,-3.74l-2.41 5.52c2.71,2.41 6.73,3.88 10.4,3.88 4.84,0 8.92,-2.48 8.92,-7.69 0,-8.83 -11.3,-6.7 -11.3,-10.3 0,-0.91 0.71,-1.33 1.79,-1.33 1.82,0 4.97,1.29 7.19,2.73zm4.66 -8.11l0 24.49 18 0 0 -5.59 -11.58 0 0 -3.88 10.22 0 0 -5.59 -10.22 0 0 -3.84 11.27 0 0 -5.59 -17.69 0zm21.08 0l0 24.49 5.9 0 0 -13.62 9.17 13.62 5.46 0 0 -24.49 -5.86 0 0 13.69 -9.17 -13.69 -5.5 0zm44.14 24.49l-4.38 -8c2.34,-1.5 3.64,-4.16 3.64,-7.79 0,-5.55 -3.33,-8.7 -9.14,-8.7l-10.09 0 0 24.49 6.42 0 0 -6.6 3.4 0 2.87 6.6 7.28 0zm-13.55 -18.9l3.67 0c1.92,0 3.03,1.19 3.03,3.32 0,2.2 -1.11,3.39 -3.03,3.39l-3.67 0 0 -6.71zm26.51 -5.79c-6.79,0 -11.79,5.23 -11.79,12.43 0,7.23 5,12.57 11.79,12.57 6.79,0 11.79,-5.38 11.79,-12.57 0,-7.16 -5,-12.43 -11.79,-12.43zm0.1 6.07c2.84,0 5.12,2.69 5.12,6.39 0,3.7 -2.28,6.46 -5.12,6.46 -2.84,0 -5.31,-2.76 -5.31,-6.46 0,-3.7 2.44,-6.39 5.31,-6.39zm14.1 -5.87l0 24.49 15.49 0 0 -6.08 -9.07 0 0 -18.41 -6.42 0zm33.58 24.49l6.85 0 -8.92 -24.49 -6.6 0 -9.23 24.49 6.6 0 1.3 -3.92 8.74 0 1.26 3.92zm-8.21 -9.22l2.66 -8 2.59 8 -5.25 0z"/>
  <path class="fil6" d="M52.61 98.89l-10.62 0 0 24.49 11.08 0c5.19,0 8.52,-2.66 8.52,-6.85 0,-3.11 -1.7,-5.55 -4.35,-6.18 2.25,-0.73 3.67,-2.79 3.67,-5.27 0,-3.78 -3.24,-6.19 -8.3,-6.19zm-0.34 9.61l-3.89 0 0 -4.16 3.89 0c1.27,0 2.07,0.77 2.07,2.03 0,1.29 -0.8,2.13 -2.07,2.13zm0 9.43l-3.89 0 0 -4.44 3.89 0c1.64,-0.03 2.69,0.81 2.69,2.13 0,1.43 -1.05,2.34 -2.69,2.31zm31.91 5.45l-4.38 -8c2.35,-1.5 3.64,-4.16 3.64,-7.79 0,-5.55 -3.33,-8.7 -9.13,-8.7l-10.1 0 0 24.49 6.42 0 0 -6.6 3.4 0 2.87 6.6 7.28 0zm-13.55 -18.9l3.68 0c1.91,0 3.02,1.19 3.02,3.32 0,2.2 -1.11,3.39 -3.02,3.39l-3.68 0 0 -6.71zm31.79 18.9l6.86 0 -8.92 -24.49 -6.61 0 -9.23 24.49 6.61 0 1.29 -3.92 8.74 0 1.26 3.92zm-8.21 -9.22l2.66 -8 2.59 8 -5.25 0zm32.16 -7.16l2.38 -5.59c-2.34,-1.71 -5.74,-2.83 -9.04,-2.83 -5.4,0 -8.95,3 -8.95,7.72 0,8.62 11.29,6.28 11.29,9.99 0,1.11 -0.86,1.64 -2.22,1.64 -2.22,0 -5.83,-1.61 -8.05,-3.74l-2.41 5.52c2.71,2.41 6.73,3.88 10.4,3.88 4.85,0 8.92,-2.48 8.92,-7.69 0,-8.83 -11.3,-6.7 -11.3,-10.3 0,-0.91 0.71,-1.33 1.79,-1.33 1.82,0 4.97,1.3 7.19,2.73zm4.66 -8.11l0 24.49 6.42 0 0 -24.49 -6.42 0zm10.07 0l0 24.49 15.49 0 0 -6.08 -9.07 0 0 -18.41 -6.42 0z"/>
 </g>
</svg>
