<?xml version="1.0" encoding="UTF-8"?>
<!DOCTYPE svg PUBLIC "-//W3C//DTD SVG 1.1//EN" "http://www.w3.org/Graphics/SVG/1.1/DTD/svg11.dtd">
<!-- Creator: CorelDRAW 2021 (64 Bit) -->
<svg xmlns="http://www.w3.org/2000/svg" xml:space="preserve" width="444px" height="425px" version="1.1" style="shape-rendering:geometricPrecision; text-rendering:geometricPrecision; image-rendering:optimizeQuality; fill-rule:evenodd; clip-rule:evenodd"
viewBox="0 0 125.5 120.17"
 xmlns:xlink="http://www.w3.org/1999/xlink"
 xmlns:xodm="http://www.corel.com/coreldraw/odm/2003">
 <defs>
  <style type="text/css">
   <![CDATA[
    .str0 {stroke:#373435;stroke-width:0.67;stroke-miterlimit:22.9256}
    .fil5 {fill:none}
    .fil7 {fill:#E6E7E8}
    .fil21 {fill:#D2AE6D}
    .fil11 {fill:#F48687}
    .fil22 {fill:#C99E52}
    .fil18 {fill:#00AFEF}
    .fil6 {fill:black}
    .fil20 {fill:#02B002}
    .fil12 {fill:#990000}
    .fil4 {fill:#9A4A40}
    .fil25 {fill:#A2C9FF}
    .fil1 {fill:#A6F0A6}
    .fil8 {fill:#B35649}
    .fil3 {fill:#B35649}
    .fil24 {fill:#B3B3B3}
    .fil0 {fill:#C4D3EA}
    .fil19 {fill:#CCCCCC}
    .fil17 {fill:#E6E6E6}
    .fil16 {fill:#EE8080}
    .fil2 {fill:#F8C8C8}
    .fil15 {fill:#FABD10}
    .fil14 {fill:#FDDB00}
    .fil9 {fill:white}
    .fil23 {fill:#373435;fill-rule:nonzero}
    .fil13 {fill:#EF5050;fill-rule:nonzero}
    .fil10 {fill:black;fill-rule:nonzero}
   ]]>
  </style>
 </defs>
 <g id="Camada_x0020_1">
  <metadata id="CorelCorpID_0Corel-Layer"/>
  <g id="_2724507842784">
   <path class="fil0" d="M1.46 33.75l4.6 0c0.81,0 1.47,0.66 1.47,1.47l0 5.47c0,0.81 -0.66,1.47 -1.47,1.47l-4.6 0c-0.8,0 -1.46,-0.66 -1.46,-1.47l0 -5.47c0,-0.81 0.66,-1.47 1.46,-1.47zm58.67 -33.75l4.6 0c0.81,0 1.46,0.66 1.46,1.46l0 39.23c0,0.81 -0.65,1.47 -1.46,1.47l-4.6 0c-0.8,0 -1.46,-0.66 -1.46,-1.47l0 -39.23c0,-0.8 0.66,-1.46 1.46,-1.46zm-9.64 6.14l4.6 0c0.8,0 1.46,0.65 1.46,1.46l0 33.09c0,0.81 -0.66,1.47 -1.46,1.47l-4.6 0c-0.81,0 -1.47,-0.66 -1.47,-1.47l0 -33.09c0,-0.81 0.66,-1.46 1.47,-1.46zm-9.72 6.86l4.6 0c0.81,0 1.46,0.66 1.46,1.47l0 26.22c0,0.81 -0.65,1.47 -1.46,1.47l-4.6 0c-0.81,0 -1.46,-0.66 -1.46,-1.47l0 -26.22c0,-0.81 0.65,-1.47 1.46,-1.47zm-9.94 6.14l4.6 0c0.81,0 1.47,0.66 1.47,1.46l0 20.09c0,0.81 -0.66,1.47 -1.47,1.47l-4.6 0c-0.8,0 -1.46,-0.66 -1.46,-1.47l0 -20.09c0,-0.8 0.66,-1.46 1.46,-1.46zm-10.23 6.94l4.61 0c0.8,0 1.46,0.66 1.46,1.46l0 13.15c0,0.81 -0.66,1.47 -1.46,1.47l-4.61 0c-0.8,0 -1.46,-0.66 -1.46,-1.47l0 -13.15c0,-0.8 0.66,-1.46 1.46,-1.46zm-9.71 4.17l4.6 0c0.8,0 1.46,0.65 1.46,1.46l0 8.98c0,0.81 -0.66,1.47 -1.46,1.47l-4.6 0c-0.81,0 -1.46,-0.66 -1.46,-1.47l0 -8.98c0,-0.81 0.65,-1.46 1.46,-1.46z"/>
   <g>
    <path class="fil1" d="M81.94 16.86c0,-1.15 0.26,-1.3 1.37,-1.32 9.41,-0.16 20.36,0.02 29.92,0.02 2.2,0 9.19,-0.44 10.45,0.37 0.14,2.75 0.2,18.3 -0.07,20.44 -2.77,0.24 -39.44,0.24 -41.58,-0.01 -0.27,-3.06 -0.09,-15.53 -0.09,-19.5zm10.95 -2.69c4,-0.29 26.33,-4.4 28.04,-3.82 0.27,0.64 0.59,2.97 0.54,3.86l-28.58 -0.04zm1.21 -1.85c2.71,-0.41 21.92,-6.55 22.74,-6.01 0.34,0.22 0.99,2.56 0.68,2.82 -0.75,0.36 -9.97,1.5 -11.63,1.74l-11.79 1.45zm-13.55 3.48l0 20.49c1.2,1.67 0.54,1.57 4.36,1.56l35.65 0c3.98,0 3.31,0.17 4.55,-1.56l0 -20.49c-1.12,-1.77 -0.53,-0.87 -2.14,-1.72 -0.22,-0.98 -0.36,-3.43 -0.69,-4.1 -0.67,-1.37 -1.77,-0.91 -3.21,-1.13 -0.41,-1.88 -0.55,-4.08 -2.67,-4.07l-26.36 7.31c-1.75,0.49 -3.52,0.96 -5.25,1.47 -3.08,0.91 -3.04,0.35 -4.24,2.24z"/>
    <path class="fil1" d="M95.24 27.16c-1.32,-10.42 13.92,-11.96 15.19,-2.17 0.6,4.58 -2.76,8.11 -6.55,8.63 -4.43,0.6 -8.16,-2.72 -8.64,-6.46zm-1.31 0.39c0.73,4.35 4.96,8.23 10.26,7.41 4.45,-0.68 8.41,-4.93 7.57,-10.32 -0.7,-4.45 -4.87,-8.43 -10.37,-7.55 -4.52,0.73 -8.38,5.04 -7.46,10.46z"/>
    <path class="fil1" d="M122.17 19.47l-0.79 -0.46c-1.46,-0.58 -0.82,-0.78 -1.38,-1.96 -1.72,-0.16 -3.82,-0.06 -5.58,-0.06 -3.9,0 -4.59,-0.49 -4.57,1.11 1.19,0.57 6.82,0.24 8.73,0.24 0.74,0.34 0.18,0 0.63,0.66 0.48,0.69 0.71,1.01 1.74,1.32l-0.01 11.39c-1.25,0.44 -1.52,0.72 -1.99,1.96 -1.84,0.06 -7.93,-0.32 -9.01,0.3 -0.33,1.61 1.13,1.11 4.48,1.11 8.35,0 4.49,0.01 6.23,-1.69 0.68,-0.67 0.89,-0.09 1.59,-0.81 0.25,-0.97 0.24,-12.53 -0.07,-13.11z"/>
    <path class="fil1" d="M87.09 18.34c1.9,0 7.53,0.33 8.72,-0.24 0,-1.08 -0.1,-1.11 -1.2,-1.11l-8.95 0.06c-0.38,0.81 -0.11,1.35 -0.94,1.8 -0.96,0.51 -1.4,-0.05 -1.4,1.37l0 11.49c0,1.67 0.49,0.92 1.47,1.51 0.76,0.45 0.5,1.14 1.01,1.76 1.12,0.25 3.76,0.1 5.05,0.1 1.01,0 4.37,0.47 4.86,-0.34 0.64,-1.03 -0.69,-1.07 -1.28,-1.07l-7.72 0c-0.46,-1.21 -0.75,-1.54 -2,-1.96l0 -11.38c1.91,-0.57 1.46,-1.59 2.38,-1.99z"/>
    <path class="fil1" d="M100.25 27.64c-0.53,1.51 0.71,2.86 1.85,3.12 0.07,0.82 -0.1,1.41 0.66,1.5 0.86,0.09 0.74,-0.73 0.81,-1.5 1.17,-0.27 2.15,-1.49 1.99,-3.01 -0.17,-1.66 -1.27,-2.1 -2.8,-2.42 -1.72,-0.37 -1.68,-2.34 -0.36,-2.71 2.41,-0.66 1.21,2.66 2.92,1.8 0.51,-0.44 0.36,-2.57 -1.8,-3.14 0,-2.29 -1.08,-1.4 -1.24,-1.15 -0.31,0.51 0.05,0.7 -0.44,1.2 0,0 -0.8,0.49 -0.95,0.62 -1.28,1.16 -1.01,3.51 0.49,4.37 0.75,0.43 1.82,0.26 2.4,0.79 1.46,1.31 -1.03,3.6 -2.11,1.7 -0.47,-0.84 -0.04,-1.8 -1.42,-1.17z"/>
    <path class="fil1" d="M88.47 26.57c-0.59,-0.96 0.36,-1.71 1,-1 0.35,0.4 0.01,1.46 -1,1zm2.37 0.19c1.03,-2.75 -3,-3.75 -3.86,-1.47 -1.08,2.85 3.03,3.7 3.86,1.47z"/>
    <path class="fil1" d="M116.33 25.49c0.83,-0.59 1.64,0.68 0.75,1.16 -0.66,0.37 -1.45,-0.65 -0.75,-1.16zm-1.61 0.87c0.3,2.4 4.4,2.33 4.08,-0.57 -0.29,-2.6 -4.44,-2.28 -4.08,0.57z"/>
   </g>
   <g>
    <path class="fil2" d="M96.77 61.65l4.99 0 0.08 2.47c-1.28,0.82 -1.82,1.01 -0.68,2.74 1.31,0.11 3.12,0.17 4.23,-0.18 1.11,-2.22 -0.6,-1.59 -0.96,-2.75l0.02 -2.24 10.54 -0.04c0.11,4.4 -0.29,1.82 -1.12,3.4 -1.26,2.41 3.86,2.35 4.68,1.53 0.44,-0.45 0.5,-1.36 0.05,-1.84 -1.04,-1.13 -1.01,1.09 -0.94,-3.1l5.04 0.01c0.09,1.86 -0.53,5.54 -0.76,7.56 -0.28,2.57 -0.58,5.13 -0.85,7.73 -0.74,7.15 -0.61,5.87 -11.26,5.87 -2.5,0 -6.2,0.22 -8.55,-0.02 -2.81,-0.29 -2.58,-3.02 -2.88,-5.64 -0.26,-2.38 -1.72,-14.17 -1.63,-15.5zm7.66 -2.67c0.02,-2.05 -0.1,-4.11 0.95,-5.55 2.33,-3.2 6.68,-3 8.79,0.11 1.11,1.65 0.85,3.33 0.88,5.51l-10.62 -0.07zm-2.6 0.07c-8.73,0 -8.15,-0.72 -7.59,4.25 0.43,3.71 0.83,7.49 1.25,11.22 0.22,1.91 0.42,3.75 0.63,5.63 0.76,6.71 7.01,5.25 13.52,5.25 6.18,0 12.92,1.52 13.69,-5.07 0.22,-1.84 0.4,-3.76 0.61,-5.58 0.44,-3.79 0.83,-7.48 1.27,-11.28 0.61,-5.23 1.12,-4.42 -7.58,-4.42 0,-3.01 -0.02,-5.56 -1.66,-7.51 -3.3,-3.92 -8.77,-4.17 -12.37,-0.1 -1.72,1.93 -1.77,4.51 -1.77,7.61z"/>
    <path class="fil2" d="M109.44 75.67c-2.8,-1.17 -2.69,-3.05 -4.88,-1.47l-0.04 1.33c1.72,1.09 4.58,3.65 5.78,3.14 0.06,-0.02 6.09,-6.64 5.98,-7.9 -0.08,-0.8 -1.25,-1.98 -2.63,-0.29 -1.35,1.66 -2.78,3.72 -4.21,5.19z"/>
   </g>
   <g>
    <path class="fil3" d="M43.2 85.14l-9.21 -23.45c0,0 -1.58,-4.55 -6.55,-6.82 -4.97,-2.28 -6.59,-3.16 -6.01,-1.89 0.57,1.27 1.96,3.43 1.96,3.43 0,0 -6.78,-2.28 -8.13,-2.28 -1.35,0 -2.66,-0.03 -1.27,1.16 1.39,1.2 8.17,4.55 8.17,4.55 0,0 -6.44,-2.16 -8.63,-2.31 -2.2,-0.16 -2.58,0.46 -2.12,1.04 0.46,0.57 9.32,5.35 9.32,5.35 0,0 -7.32,-2.62 -7.55,-1.96 -0.23,0.65 1.93,2.81 3.2,3.66 1.27,0.84 11.29,5.54 11.29,5.54l4.78 24.85c0,0 0.15,1.2 0.96,2.49l-0.07 0.06c0,0 0.31,0.44 0.9,0.99 0.47,0.47 1.04,0.91 1.76,1.27 0.65,0.34 1.39,0.62 2.24,0.76 0.63,0.1 1.38,0.07 2.16,-0.03l0.01 0c3.01,-0.39 6.55,-1.93 6.55,-1.93l-2.64 -8.54c-0.23,-2.53 -0.74,-4.82 -1.12,-5.94z"/>
    <path class="fil4" d="M15.11 64.6c0.45,0.41 0.9,0.77 1.27,1.02 1.27,0.84 11.29,5.54 11.29,5.54l4.78 24.85c0,0 0.15,1.2 0.96,2.49l-0.07 0.06c0,0 0.31,0.44 0.9,0.99 0.47,0.47 1.04,0.91 1.76,1.27 0.65,0.34 1.39,0.62 2.24,0.76 0.63,0.1 1.38,0.07 2.16,-0.03l0.01 0c3.01,-0.39 6.55,-1.93 6.55,-1.93l-2.64 -8.54c-0.06,-0.64 -0.13,-1.27 -0.22,-1.87 -1.52,0.45 -4.81,1.13 -7.01,-0.52 -2.93,-2.2 -7.09,-19.41 -7.09,-19.41 0,0 -0.08,0 -3.43,-0.49 -2.71,-0.4 -9.13,-3.16 -11.46,-4.19z"/>
    <path class="fil5 str0" d="M23.39 56.33l2.7 2.47c0,0 -1.58,1.58 -1.04,3.89 0.54,2.31 2.42,2.62 2.42,2.62"/>
    <path class="fil5 str0" d="M22.89 59.41c0,0 -1,2.12 -1.19,3.74 -0.2,1.62 -0.16,1.93 -0.16,1.93"/>
    <path class="fil6 str0" d="M52.37 20.53c0,0 1.72,-3.15 5.55,-4.44 3.83,-1.3 3.27,-0.75 3.27,-0.75 0,0 2.35,-8.88 16.42,-7.71 14.07,1.17 13.15,14.63 13.15,14.63l0 47.96 -32.22 0 0 -40.86 -6.17 -8.83z"/>
    <path class="fil7" d="M79.64 39.44c0,0 2.04,-2.2 2.9,-4.99 0.86,-2.79 0.49,-4.4 0.49,-4.4 0,0 -5.64,-8.75 -14.87,-11.43 -9.23,-2.68 -15.73,1.88 -15.73,1.88 0,0 -2.09,2.36 -3.06,6.06 -0.96,3.71 -1.12,5.42 -1.12,5.42l31.39 7.46z"/>
    <path class="fil8" d="M56.87 54.86c-4.83,-0.46 -8.65,-4.56 -8.65,-9.52l0 -12.86c0,-6.66 13.1,-6.31 18,-3.86 4.26,2.14 7.06,4.53 7.09,4.51 0.25,-0.12 0.62,-0.01 0.91,-0.01l0.03 0 0 0c0.39,0.01 0.77,0.05 1.13,0.13l0.01 0c0.13,0.03 0.27,0.06 0.4,0.1l0 0c0.09,0.03 0.17,0.05 0.26,0.08l0.01 0.01c0.04,0.01 0.08,0.03 0.12,0.04l0.01 0 0 0.01c0.08,0.03 0.16,0.06 0.25,0.1l0 0c0.04,0.02 0.08,0.03 0.12,0.05l0.01 0 0 0.01 0 0c1.95,0.91 3.3,2.91 3.3,5.24 0,3.17 -2.51,5.75 -5.62,5.77l0 5.16 0 5.09 0 6.15 2.84 0.84c-8.77,6.72 -17.97,13.11 -22.63,0l2.41 -0.63 0 -6.41z"/>
    <path class="fil4" d="M76.98 33.86c1.72,0.98 2.89,2.87 2.89,5.03 0,3.17 -2.51,5.75 -5.62,5.77l0 5.16 0 5.09 0 6.15 2.44 0.71 -5.55 4.41 0 -24.08c0,0 2.66,1.64 5.33,-0.71 2.66,-2.36 0.46,-7.53 0.46,-7.53l0.05 0z"/>
    <path class="fil9" d="M52.75 45.42c0.31,1.98 2.02,3.49 4.09,3.49 2.06,0 3.77,-1.51 4.08,-3.49l-8.17 0z"/>
    <path class="fil10" d="M55.82 37.25c0.05,-0.26 -0.11,-0.51 -0.36,-0.57 -0.26,-0.05 -0.51,0.11 -0.57,0.36l-1.13 5.09c-0.06,0.25 0.1,0.51 0.36,0.56 0.03,0.01 0.06,0.01 0.1,0.01l3.26 0.01c0.26,0 0.48,-0.22 0.48,-0.48 0,-0.26 -0.22,-0.47 -0.48,-0.47l-2.67 0 1.01 -4.51z"/>
    <circle class="fil11" cx="63.7" cy="41.24" r="3.11"/>
    <path class="fil11" d="M48.9 38.13c-0.23,0 -0.46,0.03 -0.68,0.08l0 6.07c0.22,0.05 0.45,0.08 0.68,0.08 1.72,0 3.12,-1.4 3.12,-3.12 0,-1.71 -1.4,-3.11 -3.12,-3.11z"/>
    <circle class="fil6" cx="61.66" cy="37.53" r="1.37"/>
    <circle class="fil6" cx="51.56" cy="37.53" r="1.37"/>
    <path class="fil12" d="M56.87 59.05l6.41 -4.14 -5.5 0c-0.3,0 -0.61,-0.02 -0.91,-0.05l0 4.19z"/>
    <path class="fil13" d="M61.66 45.28c0,-0.23 -0.19,-0.42 -0.42,-0.42 -0.24,0 -0.43,0.19 -0.43,0.42 0,0.16 -0.41,1.32 -1.54,2.2 -0.62,0.49 -1.46,0.88 -2.57,0.93 -1.1,0.06 -1.93,-0.27 -2.54,-0.72 -1.1,-0.84 -1.49,-2.06 -1.5,-2.26 -0.01,-0.23 -0.21,-0.41 -0.44,-0.4 -0.24,0.02 -0.41,0.21 -0.4,0.45 0.01,0.26 0.49,1.86 1.84,2.88 0.74,0.56 1.75,0.96 3.08,0.89 1.31,-0.06 2.31,-0.52 3.05,-1.11 1.37,-1.07 1.87,-2.63 1.87,-2.86z"/>
    <path class="fil14" d="M76.76 61.83c0,0 -7.58,7.75 -14.14,7.58 -6.56,-0.17 -8.17,-7.58 -8.17,-7.58l-9.78 7.38c0,0 -3.93,17.41 -5.89,23.8 -1.96,6.38 -5.25,26.91 -5.01,26.91l72.8 0.08c0,0 4.69,-35.6 -6.3,-44.12 -10.98,-8.51 -23.51,-14.05 -23.51,-14.05z"/>
    <path class="fil15" d="M76.76 61.83c0,0 -2.08,2.13 -5.01,4.13 0,0.04 0,0.08 0.01,0.12 0,0 15.26,10.4 17.65,19.72 2.38,9.33 0.92,26.68 -0.13,34.12l20.54 0c0,0 1.44,-35.52 -9.55,-44.04 -10.98,-8.51 -23.51,-14.05 -23.51,-14.05z"/>
    <path class="fil6" d="M49.16 66.28l-0.93 0.79c0.63,1.93 1.72,4.38 3.52,6.44l0 23.33 1.14 0 0 -22.18c2.27,2.03 5.46,3.37 9.89,2.81 4.15,-0.53 7.88,-2.07 11.03,-3.91l0 22.85 1.14 0 0 -23.54c4.36,-2.77 7.45,-6 8.81,-7.55 -0.35,-0.19 -0.7,-0.37 -1.03,-0.55 -2.51,2.82 -10.01,10.29 -20.09,11.57 -8.78,1.12 -12.23,-6.01 -13.48,-10.06z"/>
    <circle class="fil16" transform="matrix(0.994154 -0.107973 0.107973 0.994154 64.204 89.0086)" r="6.93"/>
    <rect class="fil17" transform="matrix(1.11487 -0.121084 0.107973 0.994154 76.3961 76.1697)" width="11.09" height="18.06"/>
    <rect class="fil18" transform="matrix(0.475748 -0.0516701 0.0805035 0.74123 81.8424 77.8894)" width="11.09" height="18.06"/>
    <rect class="fil19" transform="matrix(0.12072 -0.0131112 0.107973 0.994154 76.3961 76.1697)" width="11.09" height="18.06"/>
    <circle class="fil20" transform="matrix(0.994154 -0.107973 0.107973 0.994154 72.6805 87.9785)" r="6.93"/>
    <polygon class="fil21" points="60.66,90.49 60.74,90.49 62.62,88.14 64.97,90.03 65.04,90.02 66.93,87.67 69.27,89.56 69.34,89.55 71.23,87.21 73.57,89.09 73.65,89.08 75.53,86.74 77.88,88.62 77.95,88.62 79.84,86.27 82.18,88.16 82.25,88.15 84.14,85.81 86.48,87.69 86.56,87.68 88.44,85.34 90.83,87.26 90.76,87.34 94.53,119.9 59.72,119.98 56.5,91.08 56.4,90.99 58.32,88.61 "/>
    <path class="fil22" d="M88.29 85.53l0.15 -0.19 2.39 1.92 -0.07 0.08 3.77 32.56 -33.24 0.08 16.07 -4.73c0,0 -0.47,0 -2.77,-1.35 -2.3,-1.34 -1.11,-2.14 -1.11,-2.14l14.65 -9.74 0.16 -16.49z"/>
    <path class="fil3" d="M95.27 116.06c0.04,-0.36 -2.77,-13.47 -8.7,-15.07 -5.93,-1.6 -15.22,0.24 -15.38,0.93 -0.15,0.69 2.3,1.19 5.43,1.79 3.13,0.6 6.13,0.93 6.13,0.93 0,0 -9,1.17 -9.56,1.68 -0.56,0.51 -0.41,0.51 0.16,0.94 0.56,0.43 8.84,1.5 8.84,1.5 0,0 -6.95,2.12 -6.97,2.82 -0.03,0.71 2.5,0.87 5.39,0.75 2.89,-0.12 3.7,-0.42 3.7,-0.42 0,0 2.94,8.27 10.96,4.15z"/>
    <path class="fil4" d="M95.27 116.06c0.01,-0.09 -0.13,-0.82 -0.41,-1.92 -0.56,0.06 -1.18,0.11 -1.86,0.13 -3.9,0.12 -5.67,-5.1 -5.67,-5.1 0,0 0,0 -2.51,0.75 -1.78,0.54 -5.37,0.5 -7.34,0.44 -1.25,0.48 -2.25,0.96 -2.26,1.22 -0.03,0.71 2.5,0.87 5.39,0.75 2.89,-0.12 3.7,-0.42 3.7,-0.42 0,0 2.94,8.27 10.96,4.15z"/>
    <circle class="fil6" cx="52.29" cy="98.18" r="1.86"/>
    <polygon class="fil23" points="24.07,56.06 29.28,79.81 28.62,79.95 23.41,56.2 "/>
    <polygon class="fil23" points="13.48,80.73 18.27,65.03 18.9,65.22 14.12,80.92 "/>
    <polygon class="fil23" points="22.97,56.13 23.17,79.88 22.5,79.88 22.3,56.13 "/>
    <polygon class="fil17" points="5.19,79.59 26.54,79.59 26.54,120.17 6.55,117.97 "/>
    <polygon class="fil24" points="34.76,79.59 26.54,79.59 26.54,120.17 32.05,117.21 "/>
    <path class="fil25" d="M13.31 108.69l5.44 0c1.14,0 1.9,-0.95 2.07,-2.07l1.3 -8.63c0.17,-1.13 -0.93,-2.07 -2.07,-2.07l-1.6 0 0 -5.62 -4.84 0 0 5.62 -1.96 0c-1.13,0 -2.28,0.95 -2.06,2.07l1.65 8.63c0.22,1.12 0.93,2.07 2.07,2.07z"/>
    <rect class="fil24" x="12.19" y="88.83" width="7.68" height="2.96"/>
   </g>
  </g>
 </g>
</svg>
