<?xml version="1.0" encoding="UTF-8"?>
<!DOCTYPE svg PUBLIC "-//W3C//DTD SVG 1.1//EN" "http://www.w3.org/Graphics/SVG/1.1/DTD/svg11.dtd">
<!-- Creator: CorelDRAW 2021 (64 Bit) -->
<svg xmlns="http://www.w3.org/2000/svg" xml:space="preserve" width="351px" height="330px" version="1.1" style="shape-rendering:geometricPrecision; text-rendering:geometricPrecision; image-rendering:optimizeQuality; fill-rule:evenodd; clip-rule:evenodd"
viewBox="0 0 388.59 364.84"
 xmlns:xlink="http://www.w3.org/1999/xlink"
 xmlns:xodm="http://www.corel.com/coreldraw/odm/2003">
 <defs>
  <style type="text/css">
   <![CDATA[
    .fil4 {fill:#FEFEFE}
    .fil21 {fill:#FBCABC}
    .fil14 {fill:black}
    .fil5 {fill:black}
    .fil7 {fill:#2C8056}
    .fil8 {fill:#2C8056}
    .fil6 {fill:#339966}
    .fil10 {fill:#9A4A40}
    .fil3 {fill:#A2C9FF}
    .fil22 {fill:#A8C8E5}
    .fil1 {fill:#A8C8E5}
    .fil11 {fill:#B35649}
    .fil16 {fill:#B3B3B3}
    .fil20 {fill:#B4DBA7}
    .fil19 {fill:#CC9933}
    .fil18 {fill:#CCCCCC}
    .fil13 {fill:#E26F6D}
    .fil9 {fill:#E6E6E6}
    .fil17 {fill:#E6E7E8}
    .fil0 {fill:#FBE192}
    .fil2 {fill:#FEFEFE}
    .fil12 {fill:white}
    .fil15 {fill:black;fill-rule:nonzero}
   ]]>
  </style>
 </defs>
 <g id="Camada_x0020_1">
  <metadata id="CorelCorpID_0Corel-Layer"/>
  <path class="fil0" d="M39.33 107.3c-2.06,-2.55 -2.9,-3.02 -4.55,-4.9l4.72 -6.2c5.28,1.83 5.51,3.49 10.07,5.71 2.99,-5.74 14.07,-19.75 18.49,-24.4l6.88 5.83c-8.34,9.69 -15.79,21.78 -24.28,31.34l-7.74 -5.02 -3.59 -2.36zm41.92 14.1c31,-33.52 -15.49,-82.65 -50.84,-52.29 -37.67,32.37 16.78,89.1 50.84,52.29z"/>
  <path class="fil0" d="M44.51 57.81c23.98,-7.4 43.71,9.53 48.97,27.18 7.36,24.7 -10.04,45 -27.42,50.03 -48.89,14.14 -75.84,-60.44 -21.55,-77.21zm-29.3 68.19l8.54 5.99c-0.24,10.17 4,11.64 13.91,10.53 9.58,-1.07 9.16,4.88 17.12,7.39 5.61,-1.78 6.71,-5.13 11,-6.88 5.86,-2.4 7.89,1.53 16.05,-0.48 3.39,-4.05 4.34,-10.35 6.57,-12.59 2.04,-2.05 8.83,-3.47 12.64,-6.52 2.1,-9.25 -2.78,-11.05 1.4,-17.81 2.48,-4.01 8.29,-7.36 3.83,-13.98 -5.19,-7.69 -6.15,-3.13 -4.81,-14.79 1.04,-8.96 -2.81,-11.87 -10.86,-11.67 -4.25,0.66 -3.93,0.36 -7.89,-1.97 1.46,-4.12 -0.07,-2.87 1.79,-6.8 0.01,-10.21 -7.16,-6.19 -14.83,-6.17 -6.88,0.01 -7.49,-5.66 -14.89,-7.55 -5.66,1.52 -6.81,5.07 -11.06,6.83 -5.53,2.29 -7.98,-1.42 -16.04,0.47 -2.92,3.71 -4.57,10.69 -6.53,12.64 -2.42,2.39 -8.47,2.97 -12.62,6.53 -1.96,8.7 2.6,10.81 -0.83,17.04 -2.32,4.24 -8.24,6.49 -5.4,13.01 2.2,5.06 7.22,4.99 6.52,13.03 -0.7,7.92 -2.83,14.13 6.39,13.75z"/>
  <path class="fil1" d="M2.54 191.63l17.41 -8.31 7.72 17.83c4.9,-8.67 19.95,-48.28 16.58,-51.57 -11.22,-4.81 -11.44,6.2 -23.76,-6.38 -3.25,4.19 -16.1,41.1 -17.95,48.43z"/>
  <path class="fil1" d="M93.51 154.16l-3.81 -11.25c-12.55,13.13 -13.18,1.88 -24.39,6.67 -3.06,6.63 3.85,18.09 6.55,25.83 1.49,4.27 3.19,8.68 4.79,13.07l3.27 9.16c0.19,0.4 0.88,1.56 1.08,1.89l8.45 -16.2 17.47 8.56 -12.6 -35.11 -0.81 -2.62z"/>
  <path class="fil2" d="M31.67 123.83c-4.57,-2.55 -1.95,0.17 -4.34,-4.58 -10.78,-7 -13.83,-35.61 3.08,-50.14 35.35,-30.36 81.84,18.77 50.83,52.29 -10.64,11.5 -38.18,17.29 -49.57,2.43zm12.84 -66.02c-54.29,16.77 -27.34,91.35 21.55,77.21 17.38,-5.03 34.78,-25.33 27.42,-50.03 -5.26,-17.65 -24.99,-34.58 -48.97,-27.18z"/>
  <path class="fil2" d="M39.33 107.3l3.59 2.36 7.74 5.02c8.49,-9.56 15.94,-21.65 24.28,-31.34l-6.88 -5.83c-4.42,4.65 -15.5,18.66 -18.49,24.4 -4.56,-2.22 -4.79,-3.88 -10.07,-5.71l-4.72 6.2c1.65,1.88 2.49,2.35 4.55,4.9z"/>
  <path class="fil3" d="M165.75 69.29l191.75 0c6.65,0 12.04,6.06 12.04,13.52l0 101.46c0,7.47 -5.39,13.52 -12.04,13.52l-191.75 0c-6.65,0 -12.04,-6.05 -12.04,-13.52l0 -101.46c0,-7.46 5.39,-13.52 12.04,-13.52z"/>
  <path class="fil4" d="M167.45 73.22l188.33 0c4.92,0 8.91,4.25 8.91,9.49l0 101.68c0,5.24 -3.99,9.49 -8.91,9.49l-188.33 0c-4.92,0 -8.91,-4.25 -8.91,-9.49l0 -101.68c0,-5.24 3.99,-9.49 8.91,-9.49z"/>
  <circle class="fil5" cx="152.59" cy="71.05" r="71.05"/>
  <polygon class="fil6" points="216.89,213.17 280.17,262.26 304.35,364.62 0,364.62 22.68,255.95 89.75,208.14 "/>
  <polygon class="fil7" points="277.36,260.07 280.17,262.26 304.35,364.62 0,364.62 22.68,255.95 54.74,233.1 44.94,340.19 156.8,353.01 "/>
  <polygon class="fil8" points="209.35,207.69 217,213.48 170.67,265.88 90.09,208 103.5,198.57 "/>
  <path class="fil9" d="M184.41 187.91c0,0 -2.55,4.45 -8.31,7.04 -5.76,2.59 -6.1,2.17 -6.1,2.17l25.94 24.86 13.3 -14.4 -24.83 -19.68 0 0.01 0 0z"/>
  <path class="fil10" d="M169.78 197.43l14.97 -9.14 25.4 20.13 -41.44 32.42 -64.2 -42.47 24.04 -18.54c0,0 16.29,18.54 41.23,17.6l0 0z"/>
  <path class="fil11" d="M183.42 163.68c15.31,-1.46 27.38,-14.46 27.38,-30.13l0 -40.72c0,-27.01 -20.24,-47.96 -51.31,-45.92 -45.45,3.31 -37.27,41.23 -38.03,46.38 -0.42,2.79 2.34,1.91 -0.36,3.22l-0.04 0.02c-6.43,3.01 -10.43,9.52 -10.43,16.6 0,10.04 7.94,18.19 17.77,18.25l0 16.34 0 16.1 0 19.87 0.58 4.92c1.61,14.16 10.7,22.32 21.06,25.18 1,0.27 1.04,15.29 1.9,15.87l16.5 11.06 8.02 -5.98c0.47,-0.34 0.07,-25.59 0.45,-25.91 4.63,-3.87 7.61,-9.52 7.49,-16.79 -0.17,-9.48 -0.98,-18.36 -0.98,-28.36l0 0z"/>
  <path class="fil10" d="M119.78 97.19c-5.46,3.12 -9.15,9.09 -9.15,15.94 0,10.04 7.94,18.19 17.77,18.25l0 16.34 0 16.1 0 31.56 9.85 14.06 0 -86.14c0,0 -8.43,5.18 -16.86,-2.28 -8.43,-7.45 -1.45,-23.83 -1.45,-23.83l-0.16 0 0 0z"/>
  <path class="fil12" d="M199.24 134.44c-0.84,5.39 -5.51,9.52 -11.14,9.52 -5.63,0 -10.29,-4.13 -11.14,-9.52l22.28 0 0 0z"/>
  <circle class="fil13" cx="161.79" cy="120.58" r="9.85"/>
  <path class="fil13" d="M208.64 110.73c0.74,0 1.47,0.08 2.16,0.23l0 19.22c-0.69,0.16 -1.42,0.24 -2.16,0.24 -5.44,0 -9.85,-4.41 -9.85,-9.84 0,-5.45 4.41,-9.85 9.85,-9.85l0 0z"/>
  <circle class="fil14" cx="168.28" cy="108.8" r="4.32"/>
  <circle class="fil14" cx="200.23" cy="108.8" r="4.32"/>
  <path class="fil10" d="M183.42 176.94l-20.27 -13.12 17.38 0c0.97,0 1.94,-0.05 2.89,-0.14l0 13.26 0 0z"/>
  <path class="fil15" d="M186.76 107.93c-0.18,-0.81 0.33,-1.61 1.14,-1.79 0.81,-0.18 1.6,0.33 1.78,1.14l3.6 16.09c0.18,0.81 -0.32,1.61 -1.13,1.79 -0.11,0.02 -0.22,0.04 -0.33,0.04l-10.33 0c-0.83,0 -1.5,-0.67 -1.5,-1.5 0,-0.83 0.67,-1.5 1.5,-1.5l8.46 0 -3.19 -14.27 0 0z"/>
  <g id="_1177017216176">
   <path class="fil16" d="M106.06 338.54l81.95 0 0 -15.25 -80.4 0c-0.85,0 -1.55,3.43 -1.55,7.62l0 7.63z"/>
   <path class="fil17" d="M381.27 208.01l-178.14 0c-4.72,0 -9.12,3.82 -9.85,8.54l-17.52 113.78c-0.73,4.71 2.51,8.53 7.22,8.53l178.14 0c4.71,0 9.12,-3.82 9.85,-8.53l17.52 -113.78c0.72,-4.72 -2.51,-8.54 -7.22,-8.54z"/>
   <path class="fil18" d="M176.84 323.29l-1.08 7.04c-0.73,4.71 2.51,8.53 7.22,8.53l178.14 0c4.71,0 9.12,-3.82 9.85,-8.53l1.08 -7.04 -195.21 0z"/>
   <rect class="fil19" x="81.24" y="338.14" width="298.49" height="26.69"/>
  </g>
  <path class="fil5" d="M210.36 85.38c0,0 -5.6,-20.99 -13.35,-26.29 -7.74,-5.3 -8.36,5.2 -14.98,8.05 -6.62,2.86 -16.3,0.92 -21.2,-2.75 -4.89,-3.67 -16.71,-8.25 -22.41,-1.32 -5.71,6.93 -6.53,15.79 -5.81,22.31 0.71,6.53 9.78,23.85 9.78,23.85l-8.36 4.89c0,0 -4.58,-14.27 -11.82,-14.06 -7.23,0.2 -8.55,2.95 -9.57,4.69 -1.02,1.73 -1.02,1.73 -1.02,1.73l8.96 -56.35 29.96 -11.93 49.12 9.38c0,0 14.67,22.21 10.7,37.8z"/>
  <path class="fil11" d="M74.46 326.44c0.12,-1.3 19.92,-45.31 42.01,-46.45 22.08,-1.15 53.39,12.36 53.42,14.91 0.04,2.55 -8.98,2.46 -20.46,2.2 -11.48,-0.26 -22.26,-1.36 -22.26,-1.36 0,0 30.8,10.91 32.37,13.13 1.59,2.22 1.05,2.09 -1.26,3.19 -2.31,1.09 -32.25,-1.4 -32.25,-1.4 0,0 22.85,12.7 22.4,15.21 -0.44,2.5 -9.48,1.17 -19.57,-1.45 -10.08,-2.6 -12.68,-4.29 -12.68,-4.29 0,0 -16.6,26.88 -41.72,6.31l0 0z"/>
  <path class="fil10" d="M164.95 291.49c3.1,1.54 4.94,2.79 4.94,3.41 0.04,2.55 -8.98,2.46 -20.46,2.2 -5.89,-0.14 -11.6,-0.49 -15.76,-0.8 -3.86,-3.05 -6.87,-5.64 -3.93,-5.49 5.42,0.29 26.74,0.57 35.21,0.68zm-27.06 8.15c9.05,3.37 20.7,7.89 21.65,9.23 1.59,2.22 1.05,2.09 -1.26,3.19 -1.84,0.86 -21.14,-0.53 -28.97,-1.14 -4.69,-1.93 -9.25,-3.26 -9.25,-3.26 0,0 15.06,-1.43 21.51,-2.15 2.67,-0.29 -0.05,-2.92 -3.68,-5.87zm1.51 18.93c4.9,3.1 9.22,6.19 9.03,7.3 -0.44,2.5 -9.48,1.17 -19.57,-1.45 -10.08,-2.6 -12.68,-4.29 -12.68,-4.29 0,0 -15.63,25.3 -39.51,8.02l33 -12.6c0,0 28.77,7.72 29.73,3.02z"/>
  <path class="fil5" d="M176.12 160.86c0,0 1.61,5.51 6.59,7.12 4.97,1.62 16,-3.76 16,-3.76l1.62 -8.21c0,0 -7.67,-0.4 -9.02,-3.36 -1.34,-2.96 -0.67,-3.09 -0.67,-3.09l-3.63 0c0,0 0.94,6.86 -2.02,8.34 -2.96,1.48 -9.01,0.8 -9.01,0.8l0.14 2.16z"/>
  <path class="fil20" d="M308.65 118.35c2.94,11.99 9.61,18.61 24.62,16.43 5.98,-3.36 11.06,-5.83 12.64,-14.43 4.66,-25.38 -35.82,-33.03 -37.26,-2z"/>
  <path class="fil21" d="M248.76 93.55c34.71,-7.23 42.96,44.9 10.34,50.96 -34.29,6.36 -44.45,-43.85 -10.34,-50.96zm-2.74 -4.46c-40.83,11.8 -23.94,68.99 15.54,60.32 14.68,-3.22 27.76,-19.98 22.56,-38.89 -3.95,-14.41 -19.6,-26.77 -38.1,-21.43z"/>
  <path class="fil21" d="M240.84 136.59l32.36 -17.02c-4.36,-4.67 -25.99,-15.73 -32.3,-17.99l-0.06 35.01z"/>
  <path class="fil20" d="M353.31 169.19c0.86,-34.06 -0.03,-29.36 -24.32,-29.5 -8.2,-0.1 -22.01,-2.28 -23.87,4.13l-3.97 11.47c-0.09,-0.19 -0.56,-1.01 -0.74,-0.73l-2.3 -2.4 -3.55 -0.94c-1.4,0.5 -0.51,3.06 -10.81,-9.31 -2.09,-2.51 -11.71,-14.65 -12.55,-14.1 -1.15,1.33 5.04,6.84 7.49,10.02 2.83,3.67 8.35,8.72 10.23,12.11 0.58,0.98 2.24,2.57 2.11,3.31 -0.75,4.4 -3.23,3.07 9.98,15.84 12.44,11.95 8.94,-13.42 10.75,-17.37l2 0.25 -0.09 35.8 29.13 0.04c0.16,-11.28 -0.86,-30.26 -0.53,-36.45 0.4,0.4 1.08,-0.6 1.32,0.08 1.5,4.03 0.33,11.6 0.76,15.07 0.84,6.58 5.75,8.03 8.96,2.68z"/>
  <path class="fil22" d="M222.43 168.81l51.44 0c4.72,0 8.55,0.93 8.55,2.09l0 0.01c0,1.15 -3.83,2.09 -8.55,2.09l-51.44 0c-4.72,0 -8.55,-0.94 -8.55,-2.09l0 -0.01c0,-1.16 3.83,-2.09 8.55,-2.09z"/>
  <path class="fil22" d="M217.96 159.75l25.95 0c2.38,0 4.31,0.93 4.31,2.08l0 0.02c0,1.15 -1.93,2.09 -4.31,2.09l-25.95 0c-2.38,0 -4.31,-0.94 -4.31,-2.09l0 -0.02c0,-1.15 1.93,-2.08 4.31,-2.08z"/>
  <path class="fil22" d="M220.23 178.56l39.58 0c3.63,0 6.58,0.94 6.58,2.09l0 0.01c0,1.16 -2.95,2.09 -6.58,2.09l-39.58 0c-3.63,0 -6.58,-0.93 -6.58,-2.09l0 -0.01c0,-1.15 2.95,-2.09 6.58,-2.09z"/>
 </g>
</svg>
