<?xml version="1.0" encoding="UTF-8"?>
<!DOCTYPE svg PUBLIC "-//W3C//DTD SVG 1.1//EN" "http://www.w3.org/Graphics/SVG/1.1/DTD/svg11.dtd">
<!-- Creator: CorelDRAW 2021 (64 Bit) -->
<svg xmlns="http://www.w3.org/2000/svg" xml:space="preserve" width="438px" height="421px" version="1.1" style="shape-rendering:geometricPrecision; text-rendering:geometricPrecision; image-rendering:optimizeQuality; fill-rule:evenodd; clip-rule:evenodd"
viewBox="0 0 75.21 72.41"
 xmlns:xlink="http://www.w3.org/1999/xlink"
 xmlns:xodm="http://www.corel.com/coreldraw/odm/2003">
 <defs>
  <style type="text/css">
   <![CDATA[
    .str0 {stroke:#373435;stroke-width:0.41;stroke-miterlimit:22.9256}
    .fil23 {fill:none}
    .fil15 {fill:#F48687}
    .fil12 {fill:black}
    .fil16 {fill:black}
    .fil10 {fill:#01D101}
    .fil11 {fill:#02B002}
    .fil20 {fill:#666666}
    .fil1 {fill:#70A3D4}
    .fil17 {fill:#990000}
    .fil21 {fill:#999999}
    .fil9 {fill:#9A4A40}
    .fil5 {fill:#A8C8E5}
    .fil24 {fill:#A8C8E5}
    .fil13 {fill:#B35649}
    .fil19 {fill:#B35649}
    .fil8 {fill:#B35649}
    .fil3 {fill:#B3B3B3}
    .fil7 {fill:#B4DBA7}
    .fil4 {fill:#CCCCCC}
    .fil0 {fill:#E6E6E6}
    .fil6 {fill:#FBE192}
    .fil2 {fill:white}
    .fil22 {fill:#373435;fill-rule:nonzero}
    .fil18 {fill:#EF5050;fill-rule:nonzero}
    .fil14 {fill:black;fill-rule:nonzero}
   ]]>
  </style>
 </defs>
 <g id="Camada_x0020_1">
  <metadata id="CorelCorpID_0Corel-Layer"/>
  <g id="_2724385911040">
   <rect class="fil0" x="56.97" y="43.84" width="15.64" height="28.13" rx="1.37" ry="3.2"/>
   <rect class="fil1" x="59.02" y="60.24" width="11.85" height="3.8" rx="1.48" ry="1.9"/>
   <rect class="fil2" x="59.02" y="48.74" width="11.85" height="3.8"/>
   <rect class="fil2" x="59.02" y="54.53" width="11.85" height="3.8"/>
   <rect class="fil0" y="43.84" width="30.96" height="23.77" rx="2.7" ry="2.7"/>
   <rect class="fil1" x="8.12" y="60.36" width="18.05" height="4.11" rx="2.25" ry="2.05"/>
   <rect class="fil2" x="8.12" y="47.93" width="18.05" height="4.11"/>
   <rect class="fil2" x="8.12" y="54.19" width="18.05" height="4.11"/>
   <rect class="fil3" x="11.59" y="67.61" width="7.77" height="2.03"/>
   <rect class="fil4" x="11.59" y="69.64" width="7.77" height="2.03"/>
   <rect class="fil4" x="6.04" y="71.68" width="18.89" height="0.73"/>
   <g>
    <path class="fil5" d="M8.52 22.67c4.04,-1.44 5.48,5.28 1.98,6.63 -4.24,1.63 -5.16,-5.5 -1.98,-6.63zm8.77 5.97c-0.03,-0.91 -0.24,-1.5 -0.24,-2.51 0.01,-0.94 0.21,-1.67 0.24,-2.52l-0.07 -4.46 -4.4 -0.1 -0.01 2.41c-0.61,-0.39 -2.54,-4 -7.31,-2.34 -6.66,2.33 -4.86,16.25 4.01,14.01 1.57,-0.4 2.3,-1.24 3.13,-2.14 0.36,4.46 -2.86,5.18 -6.27,4.59 -1.07,-0.18 -1.98,-0.8 -2.88,-0.91l-0.21 3.81c3.87,1.39 12.01,2.16 13.64,-3.7 0.54,-1.98 0.14,-4.1 0.37,-6.14l0 0z"/>
    <path class="fil5" d="M53.69 26.87c-0.74,-5.19 5.32,-5.92 5.83,-1.48 0.23,2.01 -0.61,4.03 -2.34,4.33 -1.96,0.35 -3.26,-1.23 -3.49,-2.85zm-5.01 -8.33l0 14.65 4.48 0.08 0.11 -2.35c0.58,0.53 0.47,0.81 1.17,1.37 3.82,3.01 9.74,0.88 10.18,-5.61 0.5,-7.38 -6.02,-9.49 -9.5,-7.15 -0.55,0.37 -0.98,0.94 -1.46,1.17l-0.04 -8.01c-6.15,0.31 -4.92,-1.73 -4.94,5.85l0 0z"/>
    <path class="fil6" d="M24.07 22.45c4.63,-2.15 5.87,5.94 2.53,7.41 -3.14,1.39 -5.28,-2.17 -4.23,-5.52 0.38,-1.21 0.81,-1.48 1.7,-1.89l0 0zm-6.78 1.16c-0.03,0.85 -0.23,1.58 -0.24,2.52 0,1.01 0.21,1.6 0.24,2.51 0.88,1.18 1.23,2.8 3.56,3.94 1.75,0.87 4.11,1.22 6.35,0.83 2.11,-0.37 3.89,-1.42 4.78,-2.61 0.85,-1.13 1.43,-2.43 1.52,-3.95l0.2 -1.72c-0.37,-0.44 -1,-2.67 -1.39,-3.46 -0.54,-0.17 -2.43,-3.58 -8.33,-2.95 -5.13,0.55 -5.86,3.79 -6.69,4.89l0 0z"/>
    <path class="fil7" d="M32.31 21.67c0.39,0.79 1.02,3.02 1.39,3.46l3.08 8.16 5.46 0.01c0.78,-2.37 1.71,-4.64 2.6,-7.03 0.84,-2.25 1.97,-4.94 2.62,-7.18l-4.9 -0.05c-0.41,2.25 -1.85,6.19 -2.5,8.74 -0.16,0.62 -0.17,0.85 -0.6,1.22l-2.77 -9.9 -5.25 -0.03 0.87 2.6 0 0z"/>
    <path class="fil6" d="M69.38 21.42l-0.09 -2.44 -4.38 0 -0.09 14.28 4.83 0.01c0.42,-2.26 -0.24,-5.31 0.27,-7.63 0.62,-2.78 2.2,-2.7 5.08,-2.8l0.21 -4.04c-4.02,-0.46 -4.28,0.56 -5.83,2.62z"/>
    <path class="fil5" d="M45.28 28.85c-3.06,1.16 -1.29,5.48 1.66,4.32 2.6,-1.02 1.2,-5.4 -1.66,-4.32z"/>
   </g>
   <path class="fil8" d="M51.56 58.22l5.6 -14.25c0,0 0.96,-2.76 3.98,-4.14 3.01,-1.38 4,-1.92 3.65,-1.15 -0.35,0.77 -1.2,2.08 -1.2,2.08 0,0 4.12,-1.38 4.94,-1.38 0.82,0 1.62,-0.02 0.77,0.71 -0.84,0.72 -4.96,2.76 -4.96,2.76 0,0 3.91,-1.31 5.24,-1.41 1.34,-0.09 1.57,0.28 1.29,0.63 -0.28,0.36 -5.66,3.26 -5.66,3.26 0,0 4.45,-1.59 4.59,-1.2 0.14,0.4 -1.17,1.71 -1.95,2.23 -0.77,0.51 -6.85,3.37 -6.85,3.37l-2.91 15.09c0,0 -0.09,0.73 -0.59,1.51l0.05 0.04c0,0 -0.19,0.27 -0.55,0.6 -0.28,0.29 -0.63,0.56 -1.07,0.77 -0.39,0.21 -0.84,0.38 -1.35,0.46 -0.39,0.06 -0.85,0.05 -1.32,-0.01l-0.01 0c-1.83,-0.24 -3.98,-1.18 -3.98,-1.18l1.61 -5.18c0.14,-1.54 0.45,-2.93 0.68,-3.61z"/>
   <path class="fil9" d="M68.62 45.74c-0.27,0.25 -0.54,0.47 -0.77,0.62 -0.77,0.51 -6.85,3.37 -6.85,3.37l-2.91 15.09c0,0 -0.09,0.73 -0.59,1.51l0.05 0.04c0,0 -0.19,0.27 -0.55,0.6 -0.28,0.29 -0.63,0.56 -1.07,0.77 -0.39,0.21 -0.84,0.38 -1.35,0.46 -0.39,0.06 -0.85,0.05 -1.32,-0.01l-0.01 0c-1.83,-0.24 -3.98,-1.18 -3.98,-1.18l1.61 -5.18c0.03,-0.39 0.08,-0.78 0.13,-1.14 0.93,0.27 2.93,0.68 4.26,-0.32 1.78,-1.33 4.31,-11.79 4.31,-11.79 0,0 0.05,0 2.08,-0.29 1.65,-0.25 5.55,-1.92 6.96,-2.55z"/>
   <path class="fil10" d="M29.73 30.18l-5.92 5.95 -0.81 5.36 4.62 30.92 21.86 0 2.32 -14.14c2.72,-0.97 4.67,-3.58 4.67,-6.63 0,-2.71 -1.53,-5.06 -3.77,-6.24l-14.11 -15.26 -8.86 0.04z"/>
   <path class="fil11" d="M29.54 30.37l-5.73 5.76 -0.81 5.36 4.62 30.92 13.35 0 -5.37 -6.25 -5.96 -35.76 -0.1 -0.03zm19.94 42.04l2.32 -14.14c0.26,-0.09 0.51,-0.2 0.76,-0.32 -2.83,0.98 -4.64,0.03 -4.64,0.03l-5.2 14.43 6.76 0z"/>
   <path class="fil12" d="M34.44 3.67c3.99,0 7.78,2.35 9.01,5.54l0.01 -0.16c0,0 0.03,0.14 0.07,0.39 0.23,0.68 0.35,1.39 0.33,2.12 0.03,0.29 0.06,0.59 0.09,0.89 0.12,1.44 0,2.88 0.45,3.71 0.98,1.84 6.97,1.97 6.97,1.97 0,0 -2.32,-1.25 -4.87,-2.28 -2.22,-0.89 -3.15,-1.45 -3.36,-1.58 -0.68,1.38 -0.61,0.14 -1.18,1.41 -1.66,3.68 -3.22,9.19 -7.52,9.19 -5.86,0 -10.6,-4.74 -10.6,-10.6 0,-5.85 4.74,-10.6 10.6,-10.6z"/>
   <path class="fil13" d="M38.69 26.72c2.48,-0.24 4.44,-2.34 4.44,-4.89l0 -6.6c0,-2.88 -1.84,-5.35 -4.4,-6.29l0 3.11c0,2.42 -1.99,4.4 -4.41,4.4l-2.46 0c-0.53,-0.55 -1.26,-0.89 -2.08,-0.89l-0.02 0 0 0c-0.2,0 -0.39,0.02 -0.58,0.06l0 0c-0.07,0.02 -0.14,0.03 -0.21,0.05l0 0c-0.04,0.02 -0.09,0.03 -0.13,0.05l0 0c-0.03,0.01 -0.05,0.01 -0.07,0.02l0 0 0 0c-0.04,0.02 -0.09,0.04 -0.13,0.05l0 0.01c-0.02,0 -0.04,0.01 -0.06,0.02l-0.01 0 0 0.01 0 0c-1,0.46 -1.69,1.49 -1.69,2.69 0,1.63 1.29,2.95 2.88,2.96l0 2.65 0 2.61 0 3.55 8.93 0 0 -3.57z"/>
   <path class="fil9" d="M28.36 15.93c-0.88,0.51 -1.48,1.48 -1.48,2.59 0,1.63 1.29,2.95 2.88,2.96l0 2.65 0 2.61 0 3.55 1.6 0 0 -10.12c0,0 -1.37,0.84 -2.74,-0.37 -1.36,-1.21 -0.23,-3.87 -0.23,-3.87l-0.03 0z"/>
   <path class="fil2" d="M40.8 21.87c-0.15,1.02 -1.03,1.79 -2.09,1.79 -1.06,0 -1.94,-0.77 -2.1,-1.79l4.19 0z"/>
   <path class="fil14" d="M39.23 17.68c-0.03,-0.14 0.05,-0.26 0.18,-0.29 0.14,-0.03 0.26,0.05 0.29,0.18l0.59 2.61c0.03,0.13 -0.06,0.26 -0.19,0.29 -0.01,0.01 -0.03,0.01 -0.05,0.01l-1.67 0c-0.14,0 -0.25,-0.11 -0.25,-0.25 0,-0.13 0.11,-0.24 0.25,-0.24l1.37 0 -0.52 -2.31z"/>
   <circle class="fil15" cx="35.18" cy="19.73" r="1.6"/>
   <path class="fil15" d="M42.78 18.13c0.12,0 0.24,0.01 0.35,0.04l0 3.12c-0.11,0.02 -0.23,0.04 -0.35,0.04 -0.88,0 -1.6,-0.72 -1.6,-1.6 0,-0.88 0.72,-1.6 1.6,-1.6z"/>
   <circle class="fil12" cx="36.23" cy="17.82" r="0.7"/>
   <circle class="fil12" cx="41.42" cy="17.82" r="0.7"/>
   <circle class="fil16" cx="25.38" cy="5.98" r="5.98"/>
   <path class="fil17" d="M38.69 28.87l-3.29 -2.13 2.82 0c0.16,0 0.31,0 0.47,-0.02l0 2.15z"/>
   <path class="fil18" d="M36.23 21.8c0,-0.12 0.1,-0.21 0.22,-0.21 0.12,0 0.21,0.09 0.21,0.21 0,0.08 0.21,0.68 0.79,1.13 0.32,0.25 0.76,0.45 1.33,0.48 0.56,0.03 0.99,-0.14 1.3,-0.37 0.57,-0.43 0.77,-1.06 0.77,-1.16 0.01,-0.12 0.11,-0.21 0.23,-0.21 0.12,0.01 0.21,0.11 0.2,0.23 0,0.14 -0.25,0.96 -0.94,1.48 -0.38,0.29 -0.9,0.49 -1.58,0.46 -0.68,-0.03 -1.19,-0.27 -1.57,-0.57 -0.7,-0.55 -0.96,-1.35 -0.96,-1.47z"/>
   <rect class="fil19" transform="matrix(0.654349 -0.0699629 0.0870422 0.747695 22.5639 37.2006)" width="14.76" height="46.67" rx="7.38" ry="7.38"/>
   <path class="fil9" d="M35.39 63.34l0.33 2.9c0.31,2.65 -1.61,5.05 -4.26,5.34 -2.66,0.28 -5.09,-1.66 -5.4,-4.31l-2.93 -25.24c-0.27,-2.26 1.08,-4.34 3.13,-5.08 -0.44,1.17 -1,3.8 -0.3,8.97 1.03,7.64 4.14,22 4.14,22l5.29 -4.58z"/>
   <path class="fil19" d="M48.23 48.27l0 0c1.68,1.35 1.9,3.77 0.49,5.38l-14.18 16.22c-1.41,1.62 -3.94,1.83 -5.62,0.48l0 0c-1.78,-1.23 -1.94,-3.8 -0.5,-5.38l13.97 -15.28c1.44,-1.58 4.06,-2.65 5.84,-1.42z"/>
   <path class="fil9" d="M49.64 51.42c-0.05,0.79 -0.35,1.58 -0.92,2.23l-14.18 16.22c-1.41,1.62 -3.94,1.83 -5.62,0.48l0 0c-1.78,-1.23 -1.94,-3.8 -0.5,-5.38l0.86 -0.94c0.49,2.35 0.82,3.89 0.82,3.89l17.13 -14.86c0,0 1.16,-0.75 2.41,-1.64z"/>
   <path class="fil20" d="M52.6 31.77l5.55 0.57c0.78,0.08 1.17,1.23 0.85,1.98l-5.46 12.92c-0.32,0.75 -1.19,1.31 -1.97,1.23l-5.55 -0.57c-0.78,-0.08 -1.16,-0.76 -0.86,-1.52l5.46 -13.38c0.31,-0.76 1.2,-1.31 1.98,-1.23z"/>
   <rect class="fil12" transform="matrix(0.694914 0.0712216 -0.298801 0.732414 51.5524 32.4065)" width="11.5" height="21" rx="1.94" ry="1.94"/>
   <path class="fil19" d="M42.62 50.47c0.05,-0.19 1.95,-4.98 2.63,-5.24 0.68,-0.25 7.77,-2.45 8.23,-1.99 0.46,0.46 0.41,0.88 0.41,0.88 0,0 1.45,-0.75 1.83,-0.08 0.37,0.66 -0.6,1.53 -0.6,1.53 0,0 0.26,0.82 -0.49,1.49 -0.75,0.66 -1.25,0.93 -1.25,0.93 0,0 -0.15,0.96 -1.3,2.41 -1.14,1.45 -3.03,3.24 -4.05,3.27 -1.03,0.04 -2.7,0.94 -2.7,0.94l-2.71 -4.14z"/>
   <path class="fil9" d="M53.15 48.68c-0.18,0.41 -0.5,1.01 -1.07,1.72 -1.14,1.45 -3.03,3.24 -4.05,3.27 -0.77,0.03 -1.9,0.54 -2.42,0.8l1.62 -1.41c0,0 4.19,-2.72 5.26,-3.91 0.21,-0.23 0.43,-0.38 0.66,-0.47z"/>
   <ellipse class="fil21" transform="matrix(0.585144 -0 -0.123939 0.585144 52.6578 34.3235)" rx="1" ry="1.2"/>
   <path class="fil22" d="M53.77 43.84c0.07,-0.04 0.15,-0.02 0.19,0.05 0.04,0.07 0.02,0.16 -0.05,0.19l-3.77 2.12c-0.06,0.04 -0.15,0.01 -0.19,-0.06 -0.04,-0.07 -0.01,-0.15 0.05,-0.19l3.77 -2.11z"/>
   <path class="fil22" d="M55 45.45c0.07,-0.04 0.15,-0.01 0.19,0.06 0.04,0.06 0.01,0.15 -0.06,0.19l-3.22 1.76c-0.07,0.04 -0.16,0.02 -0.19,-0.05 -0.04,-0.07 -0.02,-0.16 0.05,-0.19l3.23 -1.77z"/>
   <path class="fil23 str0" d="M63.59 40.72l-1.64 1.5c0,0 0.96,0.95 0.64,2.36 -0.33,1.4 -1.48,1.59 -1.48,1.59"/>
   <path class="fil23 str0" d="M63.9 42.59c0,0 0.61,1.29 0.72,2.27 0.12,0.98 0.1,1.17 0.1,1.17"/>
   <path class="fil24" d="M4.76 47.53c0.5,0 0.91,0.41 0.91,0.91 0,0.5 -0.41,0.91 -0.91,0.91 -0.51,0 -0.91,-0.41 -0.91,-0.91 0,-0.5 0.4,-0.91 0.91,-0.91zm-0.42 2.36l0.83 0c0.55,0 1,0.45 1,1l0 1 -2.83 0 0 -1c0,-0.55 0.45,-1 1,-1z"/>
   <rect class="fil24" x="3.32" y="55.89" width="2.88" height="2.43" rx="0.55" ry="0.41"/>
   <path class="fil24" d="M4.76 54.41c0.58,0 1.06,0.48 1.06,1.06l0 0.18 -0.48 0 0 -0.11c0,-0.32 -0.26,-0.58 -0.58,-0.58l0 0c-0.32,0 -0.58,0.26 -0.58,0.58l0 0.11 -0.48 0 0 -0.18c0,-0.58 0.47,-1.06 1.06,-1.06z"/>
   <rect class="fil24" x="60.17" y="66.18" width="9.54" height="1.15" rx="1.19" ry="0.58"/>
   <rect class="fil24" x="61.43" y="67.92" width="7.03" height="1.15" rx="0.88" ry="0.58"/>
  </g>
 </g>
</svg>
